<mxfile host="app.diagrams.net" agent="Mozilla/5.0 (Windows NT 10.0; Win64; x64) AppleWebKit/537.36 (KHTML, like Gecko) Chrome/128.0.0.0 Safari/537.36" version="24.8.8">
  <diagram name="Page-1" id="14ENEmc3RAnGiDljgNdV">
    <mxGraphModel>
      <root>
        <mxCell id="0" />
        <mxCell id="1" parent="0" />
        <mxCell id="2" value="Admin" style="whiteSpace=wrap;strokeWidth=2;" vertex="1" parent="1">
          <mxGeometry x="8" y="8" width="411" height="367" as="geometry" />
        </mxCell>
        <mxCell id="3" value="Property" style="whiteSpace=wrap;strokeWidth=2;verticalAlign=top;" vertex="1" parent="1">
          <mxGeometry x="454" y="33" width="800" height="119" as="geometry" />
        </mxCell>
        <mxCell id="4" value="Property" style="rounded=1;arcSize=40;strokeWidth=2" vertex="1" parent="3">
          <mxGeometry x="46" y="43" width="92" height="49" as="geometry" />
        </mxCell>
        <mxCell id="5" value="Listing" style="rounded=1;arcSize=40;strokeWidth=2" vertex="1" parent="3">
          <mxGeometry x="213" y="43" width="77" height="49" as="geometry" />
        </mxCell>
        <mxCell id="6" value="Hosting" style="rounded=1;arcSize=40;strokeWidth=2" vertex="1" parent="3">
          <mxGeometry x="365" y="43" width="83" height="49" as="geometry" />
        </mxCell>
        <mxCell id="7" value="Calendar" style="rounded=1;arcSize=40;strokeWidth=2" vertex="1" parent="3">
          <mxGeometry x="523" y="43" width="94" height="49" as="geometry" />
        </mxCell>
        <mxCell id="8" value="Pricing" style="rounded=1;arcSize=40;strokeWidth=2" vertex="1" parent="3">
          <mxGeometry x="692" y="43" width="78" height="49" as="geometry" />
        </mxCell>
        <mxCell id="9" value="" style="curved=1;startArrow=none;endArrow=block;exitX=1;exitY=0.5;entryX=0;entryY=0.5;" edge="1" parent="3" source="4" target="5">
          <mxGeometry relative="1" as="geometry">
            <Array as="points" />
          </mxGeometry>
        </mxCell>
        <mxCell id="10" value="" style="curved=1;startArrow=none;endArrow=block;exitX=0.99;exitY=0.5;entryX=-0.01;entryY=0.5;" edge="1" parent="3" source="5" target="6">
          <mxGeometry relative="1" as="geometry">
            <Array as="points" />
          </mxGeometry>
        </mxCell>
        <mxCell id="11" value="" style="curved=1;startArrow=none;endArrow=block;exitX=1;exitY=0.5;entryX=0;entryY=0.5;" edge="1" parent="3" source="6" target="7">
          <mxGeometry relative="1" as="geometry">
            <Array as="points" />
          </mxGeometry>
        </mxCell>
        <mxCell id="12" value="" style="curved=1;startArrow=none;endArrow=block;exitX=1;exitY=0.5;entryX=0;entryY=0.5;" edge="1" parent="3" source="7" target="8">
          <mxGeometry relative="1" as="geometry">
            <Array as="points" />
          </mxGeometry>
        </mxCell>
        <mxCell id="13" value="User" style="whiteSpace=wrap;strokeWidth=2;verticalAlign=top;" vertex="1" parent="1">
          <mxGeometry x="1304" y="33" width="812" height="119" as="geometry" />
        </mxCell>
        <mxCell id="14" value="User" style="rounded=1;arcSize=40;strokeWidth=2" vertex="1" parent="13">
          <mxGeometry x="46" y="43" width="63" height="49" as="geometry" />
        </mxCell>
        <mxCell id="15" value="Login" style="rounded=1;arcSize=40;strokeWidth=2" vertex="1" parent="13">
          <mxGeometry x="183" y="43" width="68" height="49" as="geometry" />
        </mxCell>
        <mxCell id="16" value="Registration" style="rounded=1;arcSize=40;strokeWidth=2" vertex="1" parent="13">
          <mxGeometry x="326" y="43" width="116" height="49" as="geometry" />
        </mxCell>
        <mxCell id="17" value="Dashboard" style="rounded=1;arcSize=40;strokeWidth=2" vertex="1" parent="13">
          <mxGeometry x="517" y="43" width="105" height="49" as="geometry" />
        </mxCell>
        <mxCell id="18" value="Booking" style="rounded=1;arcSize=40;strokeWidth=2" vertex="1" parent="13">
          <mxGeometry x="697" y="43" width="86" height="49" as="geometry" />
        </mxCell>
        <mxCell id="19" value="" style="curved=1;startArrow=none;endArrow=block;exitX=0.99;exitY=0.5;entryX=0;entryY=0.5;" edge="1" parent="13" source="14" target="15">
          <mxGeometry relative="1" as="geometry">
            <Array as="points" />
          </mxGeometry>
        </mxCell>
        <mxCell id="20" value="" style="curved=1;startArrow=none;endArrow=block;exitX=1.01;exitY=0.5;entryX=0;entryY=0.5;" edge="1" parent="13" source="15" target="16">
          <mxGeometry relative="1" as="geometry">
            <Array as="points" />
          </mxGeometry>
        </mxCell>
        <mxCell id="21" value="" style="curved=1;startArrow=none;endArrow=block;exitX=1;exitY=0.5;entryX=0;entryY=0.5;" edge="1" parent="13" source="16" target="17">
          <mxGeometry relative="1" as="geometry">
            <Array as="points" />
          </mxGeometry>
        </mxCell>
        <mxCell id="22" value="" style="curved=1;startArrow=none;endArrow=block;exitX=1;exitY=0.5;entryX=0;entryY=0.5;" edge="1" parent="13" source="17" target="18">
          <mxGeometry relative="1" as="geometry">
            <Array as="points" />
          </mxGeometry>
        </mxCell>
        <mxCell id="23" value="Admin" style="rounded=1;arcSize=40;strokeWidth=2" vertex="1" parent="1">
          <mxGeometry x="167" y="68" width="76" height="49" as="geometry" />
        </mxCell>
        <mxCell id="24" value="Dashboard" style="rounded=1;arcSize=40;strokeWidth=2" vertex="1" parent="1">
          <mxGeometry x="153" y="202" width="105" height="49" as="geometry" />
        </mxCell>
        <mxCell id="25" value="Manage Users" style="rounded=1;arcSize=40;strokeWidth=2" vertex="1" parent="1">
          <mxGeometry x="43" y="301" width="128" height="49" as="geometry" />
        </mxCell>
        <mxCell id="26" value="Manage Properties" style="rounded=1;arcSize=40;strokeWidth=2" vertex="1" parent="1">
          <mxGeometry x="221" y="301" width="163" height="49" as="geometry" />
        </mxCell>
        <mxCell id="27" value="Reports" style="rounded=1;arcSize=40;strokeWidth=2" vertex="1" parent="1">
          <mxGeometry x="163" y="425" width="84" height="49" as="geometry" />
        </mxCell>
        <mxCell id="28" value="" style="curved=1;startArrow=none;endArrow=block;exitX=0.5;exitY=1;entryX=0.49;entryY=0;" edge="1" parent="1" source="23" target="24">
          <mxGeometry relative="1" as="geometry">
            <Array as="points" />
          </mxGeometry>
        </mxCell>
        <mxCell id="29" value="" style="curved=1;startArrow=none;endArrow=block;exitX=0.03;exitY=1;entryX=0.5;entryY=0;" edge="1" parent="1" source="24" target="25">
          <mxGeometry relative="1" as="geometry">
            <Array as="points">
              <mxPoint x="107" y="276" />
            </Array>
          </mxGeometry>
        </mxCell>
        <mxCell id="30" value="" style="curved=1;startArrow=none;endArrow=block;exitX=0.96;exitY=1;entryX=0.5;entryY=0;" edge="1" parent="1" source="24" target="26">
          <mxGeometry relative="1" as="geometry">
            <Array as="points">
              <mxPoint x="303" y="276" />
            </Array>
          </mxGeometry>
        </mxCell>
        <mxCell id="31" value="" style="curved=1;startArrow=none;endArrow=block;exitX=0.5;exitY=1;entryX=0;entryY=0.06;" edge="1" parent="1" source="25" target="27">
          <mxGeometry relative="1" as="geometry">
            <Array as="points">
              <mxPoint x="107" y="400" />
            </Array>
          </mxGeometry>
        </mxCell>
        <mxCell id="32" value="" style="curved=1;startArrow=none;endArrow=block;exitX=0.5;exitY=1;entryX=1;entryY=0.06;" edge="1" parent="1" source="26" target="27">
          <mxGeometry relative="1" as="geometry">
            <Array as="points">
              <mxPoint x="303" y="400" />
            </Array>
          </mxGeometry>
        </mxCell>
      </root>
    </mxGraphModel>
  </diagram>
</mxfile>
